<svg id="svg" version="1.1" xmlns="http://www.w3.org/2000/svg" xmlns:xlink="http://www.w3.org/1999/xlink" width="400" height="400" viewBox="0, 0, 400,400"><g id="svgg"><path id="path0" d="M149.190 122.538 C 95.331 156.594,89.997 233.279,138.663 273.904 C 154.602 287.210,177.276 296.094,195.297 296.094 L 197.266 296.094 197.266 286.541 L 197.266 276.989 195.996 276.808 C 195.298 276.709,192.881 276.423,190.625 276.174 C 165.733 273.419,142.780 256.877,131.813 233.789 C 115.685 199.837,128.301 157.641,160.372 138.269 C 162.187 137.173,163.672 136.101,163.672 135.888 C 163.672 135.675,163.812 135.587,163.983 135.693 C 164.759 136.173,165.371 135.237,164.712 134.578 C 164.355 134.221,164.060 133.721,164.057 133.468 C 164.053 133.196,163.891 133.247,163.659 133.594 C 163.317 134.105,163.215 134.092,162.864 133.496 C 162.642 133.120,162.196 132.813,161.872 132.813 C 161.547 132.813,161.391 132.637,161.523 132.422 C 162.103 131.484,161.185 131.183,160.466 132.076 C 159.749 132.967,159.727 132.971,159.952 132.162 C 160.265 131.039,159.466 130.592,158.775 131.504 C 158.254 132.193,158.227 132.185,158.216 131.348 C 158.209 130.864,158.360 130.469,158.552 130.469 C 158.744 130.469,159.005 130.196,159.133 129.863 C 159.408 129.146,158.836 129.409,157.498 130.615 C 156.432 131.576,156.614 130.507,157.739 129.197 C 158.732 128.041,157.893 127.937,156.755 129.076 C 156.167 129.664,155.623 129.956,155.546 129.724 C 155.469 129.493,155.707 129.003,156.076 128.634 C 156.532 128.178,156.598 127.916,156.283 127.811 C 156.029 127.726,155.391 128.158,154.864 128.770 C 154.156 129.594,153.907 129.714,153.907 129.232 C 153.906 128.874,154.044 128.522,154.213 128.451 C 154.648 128.266,156.357 125.781,156.049 125.781 C 155.909 125.781,155.181 126.413,154.431 127.185 C 153.681 127.957,152.950 128.471,152.807 128.328 C 152.663 128.184,152.855 127.893,153.234 127.681 C 153.613 127.469,153.828 127.143,153.713 126.956 C 153.597 126.769,153.682 126.506,153.900 126.371 C 154.118 126.236,154.293 125.829,154.288 125.465 C 154.281 124.941,154.132 124.997,153.563 125.737 C 153.150 126.273,152.742 126.500,152.600 126.271 C 152.465 126.052,152.724 125.404,153.175 124.830 C 153.626 124.256,153.887 123.678,153.754 123.546 C 153.425 123.217,151.563 125.009,151.563 125.654 C 151.563 126.393,150.522 126.296,150.228 125.530 C 150.092 125.177,150.074 124.796,150.186 124.684 C 150.299 124.571,150.391 124.684,150.391 124.935 C 150.391 125.694,150.950 125.441,151.395 124.482 C 151.675 123.876,151.686 123.296,151.429 122.719 C 151.125 122.038,151.201 121.741,151.792 121.293 C 153.339 120.123,151.987 120.769,149.190 122.538 M140.646 186.440 C 140.560 216.425,141.570 220.922,150.364 229.713 C 169.204 248.547,201.102 238.993,207.255 212.672 C 208.048 209.284,208.573 183.416,207.864 182.707 C 207.559 182.403,207.486 182.523,207.604 183.134 C 207.694 183.602,207.621 183.984,207.441 183.984 C 207.036 183.984,206.490 182.786,206.596 182.129 C 206.639 181.860,206.491 181.641,206.267 181.641 C 206.043 181.641,205.859 181.816,205.859 182.031 C 205.859 182.246,205.584 182.422,205.247 182.422 C 204.813 182.422,204.707 182.195,204.883 181.641 C 205.025 181.192,204.953 180.859,204.714 180.859 C 204.302 180.859,204.142 182.520,204.226 185.938 C 204.259 187.296,204.179 187.541,203.874 187.015 C 203.657 186.640,203.509 186.113,203.544 185.843 C 203.579 185.573,203.587 184.604,203.562 183.691 C 203.504 181.599,202.734 181.487,202.734 183.571 C 202.734 186.731,202.145 185.336,202.063 181.980 C 201.950 177.395,201.673 176.903,200.093 178.482 C 198.386 180.189,196.257 179.291,197.447 177.366 C 197.996 176.478,197.147 177.023,195.867 178.380 C 194.215 180.132,193.824 179.945,195.128 178.026 C 195.659 177.244,196.088 176.463,196.082 176.290 C 196.075 176.118,195.891 176.284,195.672 176.660 C 195.453 177.036,195.077 177.344,194.836 177.344 C 194.595 177.344,194.068 177.642,193.666 178.005 C 193.019 178.591,192.963 178.594,193.177 178.036 C 193.311 177.688,193.670 177.308,193.976 177.191 C 194.281 177.074,194.531 176.723,194.531 176.412 C 194.531 176.101,194.751 175.768,195.020 175.672 C 195.288 175.576,195.364 175.344,195.188 175.157 C 195.011 174.969,194.575 175.181,194.212 175.633 C 193.850 176.082,193.247 176.557,192.871 176.689 C 192.495 176.821,192.188 177.233,192.188 177.605 C 192.188 178.151,192.094 178.185,191.699 177.783 C 191.307 177.383,191.422 177.115,192.285 176.421 C 193.362 175.555,193.712 174.609,192.956 174.609 C 192.735 174.609,192.451 174.878,192.325 175.205 C 191.830 176.496,191.137 174.955,191.054 172.376 C 190.871 166.730,190.625 169.814,190.624 177.767 C 190.622 187.506,190.282 206.041,190.057 208.598 C 188.957 221.141,172.317 226.651,163.168 217.502 C 158.810 213.144,158.594 211.696,158.594 186.895 L 158.594 166.406 149.649 166.406 L 140.704 166.406 140.646 186.440 M201.162 179.463 C 200.637 179.988,200.246 179.456,200.559 178.641 C 200.783 178.056,200.877 178.038,201.177 178.523 C 201.390 178.868,201.384 179.241,201.162 179.463 M196.875 179.492 C 196.875 179.814,196.617 180.078,196.301 180.078 C 195.952 180.078,195.816 179.849,195.952 179.492 C 196.076 179.170,196.334 178.906,196.526 178.906 C 196.718 178.906,196.875 179.170,196.875 179.492 M199.723 180.859 C 199.610 181.289,199.383 181.641,199.219 181.641 C 199.054 181.641,198.827 181.289,198.715 180.859 C 198.566 180.290,198.703 180.078,199.219 180.078 C 199.735 180.078,199.871 180.290,199.723 180.859 M207.813 187.086 C 207.813 189.464,207.388 190.722,206.789 190.122 C 206.483 189.816,206.492 186.215,206.801 185.254 C 207.347 183.557,207.813 184.401,207.813 187.086 M213.137 205.959 C 212.511 215.644,206.666 229.939,202.662 231.576 C 202.487 231.647,202.344 233.273,202.344 235.189 L 202.344 238.672 211.133 238.672 L 219.922 238.672 219.922 228.516 L 219.922 218.359 229.167 218.359 C 237.356 218.359,241.374 218.100,236.106 217.911 C 235.047 217.874,233.849 217.651,233.445 217.417 C 232.913 217.110,232.667 217.111,232.553 217.424 C 232.349 217.981,230.463 217.626,230.216 216.984 C 230.112 216.714,229.699 216.578,229.298 216.683 C 228.715 216.836,228.612 216.709,228.783 216.054 C 228.901 215.603,229.163 215.234,229.365 215.234 C 229.568 215.234,229.636 215.077,229.517 214.885 C 229.399 214.692,229.553 214.439,229.860 214.321 C 230.166 214.203,230.626 213.701,230.882 213.206 C 231.265 212.461,231.256 212.390,230.829 212.793 C 229.956 213.618,229.614 213.340,229.870 212.012 C 230.090 210.874,230.058 210.813,229.565 211.426 C 228.891 212.264,228.516 212.299,228.516 211.523 C 228.516 211.201,228.691 210.938,228.906 210.938 C 229.121 210.938,229.297 210.668,229.297 210.338 C 229.297 209.851,229.144 209.820,228.482 210.174 C 227.401 210.753,227.055 210.341,227.868 209.443 C 228.575 208.662,228.375 208.132,227.501 208.467 C 227.200 208.583,226.953 208.507,226.953 208.299 C 226.953 208.091,226.514 208.005,225.977 208.108 C 225.439 208.210,225.000 208.479,225.000 208.704 C 225.000 208.930,224.887 209.002,224.749 208.864 C 224.611 208.726,224.703 208.365,224.954 208.063 C 225.310 207.634,225.279 207.463,224.815 207.284 C 224.487 207.159,224.219 207.226,224.219 207.434 C 224.219 208.198,223.131 207.785,222.897 206.934 C 222.709 206.249,222.579 206.174,222.308 206.595 C 222.050 206.996,221.892 206.827,221.697 205.938 C 221.417 204.664,220.980 204.183,219.727 203.770 C 219.131 203.573,219.212 203.750,220.065 204.510 C 220.680 205.060,221.066 205.627,220.922 205.770 C 220.778 205.914,220.525 205.813,220.360 205.546 C 220.195 205.279,219.633 204.979,219.112 204.880 C 216.530 204.391,216.016 204.192,216.016 203.680 C 216.016 203.375,215.730 203.125,215.382 203.125 C 214.863 203.125,214.836 203.019,215.234 202.539 C 215.648 202.041,215.547 201.953,214.558 201.953 L 213.396 201.953 213.137 205.959 M217.326 202.355 C 218.382 202.671,225.782 202.474,226.136 202.119 C 226.227 202.028,224.032 201.968,221.257 201.987 C 217.805 202.010,216.563 202.126,217.326 202.355 M222.035 204.919 C 222.154 205.726,222.415 205.830,222.927 205.274 C 223.295 204.875,223.241 204.727,222.676 204.579 C 222.222 204.461,221.987 204.586,222.035 204.919 M223.648 205.995 C 223.174 206.342,223.075 206.612,223.359 206.787 C 223.595 206.933,223.980 206.697,224.213 206.261 C 224.711 205.329,224.618 205.286,223.648 205.995 M230.859 214.593 C 230.859 214.910,230.649 215.240,230.391 215.325 C 230.117 215.417,230.234 215.601,230.672 215.769 C 231.084 215.927,231.297 215.932,231.144 215.779 C 230.991 215.627,231.049 215.281,231.272 215.012 C 231.554 214.673,231.553 214.445,231.269 214.270 C 231.044 214.130,230.859 214.276,230.859 214.593 M259.916 247.415 C 247.772 263.230,226.503 275.052,207.813 276.376 C 205.986 276.505,204.097 276.691,203.613 276.790 L 202.734 276.968 202.734 286.531 L 202.734 296.094 205.058 296.094 C 222.001 296.094,244.511 287.361,260.004 274.778 C 265.057 270.674,273.672 261.718,272.988 261.279 C 272.636 261.054,272.234 261.215,271.777 261.764 C 271.229 262.424,271.094 262.462,271.094 261.957 C 271.094 261.611,271.241 261.328,271.422 261.328 C 271.881 261.328,272.714 259.394,272.443 258.955 C 272.051 258.322,271.544 258.565,271.366 259.473 L 271.193 260.352 270.902 259.473 C 270.556 258.424,270.546 258.423,269.322 259.225 C 268.793 259.572,268.359 259.674,268.359 259.452 C 268.359 259.231,268.564 258.981,268.814 258.898 C 269.256 258.751,269.552 255.078,269.121 255.078 C 269.003 255.078,268.695 255.289,268.438 255.547 C 268.073 255.911,267.958 255.911,267.920 255.547 C 267.813 254.521,267.762 254.351,267.480 254.069 C 267.185 253.774,267.081 254.230,267.117 255.664 C 267.133 256.309,267.102 256.326,266.938 255.762 C 266.829 255.386,266.571 255.078,266.364 255.078 C 266.130 255.078,266.123 254.820,266.346 254.395 C 266.812 253.506,266.276 252.120,265.256 251.574 C 264.242 251.031,264.231 251.357,265.227 252.426 C 265.849 253.094,265.908 253.370,265.527 253.829 C 265.123 254.316,265.021 254.266,264.840 253.499 C 264.572 252.366,263.696 252.015,263.775 253.073 C 263.808 253.501,263.963 253.773,264.120 253.675 C 264.277 253.578,264.381 253.833,264.350 254.242 C 264.304 254.856,264.172 254.909,263.592 254.547 C 263.070 254.221,262.702 254.227,262.152 254.570 C 261.332 255.083,259.670 254.263,260.284 253.648 C 260.461 253.472,260.779 253.637,260.991 254.015 C 261.203 254.394,261.539 254.603,261.738 254.480 C 262.436 254.049,260.898 252.304,260.056 252.571 C 259.566 252.726,259.370 252.668,259.528 252.413 C 259.919 251.780,259.018 251.439,258.372 251.975 C 257.360 252.815,257.250 251.991,258.234 250.944 C 258.754 250.390,259.158 249.819,259.132 249.676 C 259.022 249.078,259.486 248.460,259.867 248.695 C 260.092 248.835,260.163 248.764,260.024 248.539 C 259.884 248.313,260.044 248.024,260.379 247.895 C 260.713 247.767,260.885 247.497,260.761 247.295 C 260.636 247.094,260.712 246.819,260.929 246.685 C 261.345 246.428,262.246 244.922,261.984 244.922 C 261.899 244.922,260.969 246.044,259.916 247.415 M268.510 257.655 C 268.264 258.635,268.201 258.673,267.954 257.994 C 267.800 257.572,267.854 257.003,268.073 256.729 C 268.650 256.007,268.829 256.386,268.510 257.655 M269.922 257.008 C 269.922 257.425,270.098 257.875,270.313 258.008 C 270.534 258.145,270.703 257.817,270.703 257.250 C 270.703 256.700,270.527 256.250,270.313 256.250 C 270.098 256.250,269.922 256.591,269.922 257.008 " stroke="none" fill="#583c95" fill-rule="evenodd"></path><path id="path1" d="M0.000 200.000 L 0.000 400.000 200.000 400.000 L 400.000 400.000 400.000 200.000 L 400.000 0.000 200.000 0.000 L 0.000 0.000 0.000 200.000 M197.266 117.545 L 197.266 127.277 194.238 127.545 C 145.329 131.875,113.577 179.413,128.720 225.639 C 137.875 253.587,163.955 273.797,194.238 276.409 L 197.266 276.670 197.266 286.577 L 197.266 296.484 196.330 296.484 C 191.206 296.484,179.507 294.523,173.000 292.573 C 107.701 273.005,83.658 195.438,126.447 142.383 C 142.736 122.185,170.231 108.261,194.629 107.856 L 197.266 107.813 197.266 117.545 M214.619 108.791 C 286.311 119.486,319.426 204.915,273.810 261.490 C 257.450 281.781,228.271 296.365,203.809 296.478 L 202.344 296.484 202.344 286.574 L 202.344 276.663 205.957 276.381 C 258.241 272.302,290.239 216.748,267.387 169.727 C 255.358 144.975,228.466 127.373,202.637 127.344 C 202.476 127.344,202.344 122.923,202.344 117.519 L 202.344 107.695 206.348 107.924 C 208.550 108.051,212.272 108.441,214.619 108.791 M158.994 187.207 C 159.004 209.480,159.063 210.332,160.838 213.957 C 165.481 223.441,180.578 224.631,186.915 216.012 C 190.028 211.777,190.023 211.822,190.157 187.581 L 190.277 165.983 214.767 166.097 L 239.258 166.211 242.383 167.314 C 266.385 175.786,267.063 208.917,243.405 217.343 C 240.063 218.534,239.968 218.544,230.078 218.744 L 220.117 218.945 220.013 229.011 L 219.909 239.077 211.044 238.972 L 202.180 238.867 202.164 235.514 L 202.148 232.161 204.219 229.655 C 209.231 223.587,212.891 212.766,212.891 204.014 C 212.891 202.027,212.929 201.953,213.965 201.951 C 221.950 201.931,236.435 201.400,237.453 201.090 C 243.705 199.183,245.093 189.087,239.672 184.952 C 237.072 182.970,235.747 182.813,221.618 182.813 L 208.594 182.813 208.593 193.066 C 208.593 205.091,208.165 210.416,206.827 215.033 C 197.047 248.781,148.364 247.336,141.210 213.086 C 140.748 210.875,140.637 206.106,140.632 188.184 L 140.625 166.016 149.805 166.016 L 158.984 166.016 158.994 187.207 " stroke="none" fill="#fbfbfb" fill-rule="evenodd"></path><path id="path2" d="M193.750 108.077 C 180.064 109.076,157.375 115.638,154.986 119.288 C 154.829 119.529,154.697 119.561,154.693 119.359 C 154.690 119.157,154.468 119.279,154.199 119.630 C 153.931 119.982,153.462 120.323,153.158 120.389 C 151.985 120.641,151.071 121.916,151.451 122.768 C 151.683 123.288,151.663 123.903,151.395 124.482 C 150.950 125.441,150.391 125.694,150.391 124.935 C 150.391 124.684,150.299 124.571,150.186 124.684 C 150.074 124.796,150.092 125.177,150.228 125.530 C 150.522 126.296,151.563 126.393,151.563 125.654 C 151.563 125.009,153.425 123.217,153.754 123.546 C 153.887 123.678,153.626 124.256,153.175 124.830 C 152.724 125.404,152.465 126.052,152.600 126.271 C 152.742 126.500,153.150 126.273,153.563 125.737 C 154.132 124.997,154.281 124.941,154.288 125.465 C 154.293 125.829,154.118 126.236,153.900 126.371 C 153.682 126.506,153.597 126.769,153.713 126.956 C 153.828 127.143,153.613 127.469,153.234 127.681 C 152.855 127.893,152.663 128.184,152.807 128.328 C 152.950 128.471,153.681 127.957,154.431 127.185 C 155.181 126.413,155.909 125.781,156.049 125.781 C 156.357 125.781,154.648 128.266,154.213 128.451 C 154.044 128.522,153.906 128.874,153.907 129.232 C 153.907 129.714,154.156 129.594,154.864 128.770 C 155.391 128.158,156.029 127.726,156.283 127.811 C 156.598 127.916,156.532 128.178,156.076 128.634 C 155.707 129.003,155.469 129.493,155.546 129.724 C 155.623 129.956,156.167 129.664,156.755 129.076 C 157.893 127.937,158.732 128.041,157.739 129.197 C 156.614 130.507,156.432 131.576,157.498 130.615 C 158.836 129.409,159.408 129.146,159.133 129.863 C 159.005 130.196,158.744 130.469,158.552 130.469 C 158.360 130.469,158.209 130.864,158.216 131.348 C 158.227 132.185,158.254 132.193,158.775 131.504 C 159.466 130.592,160.265 131.039,159.952 132.162 C 159.727 132.971,159.749 132.967,160.466 132.076 C 161.185 131.183,162.103 131.484,161.523 132.422 C 161.391 132.637,161.547 132.813,161.872 132.813 C 162.196 132.813,162.642 133.120,162.864 133.496 C 163.215 134.092,163.317 134.105,163.659 133.594 C 163.874 133.271,164.053 133.201,164.057 133.436 C 164.060 133.672,164.414 134.270,164.844 134.766 C 165.273 135.261,165.625 135.464,165.625 135.216 C 165.625 134.968,165.757 134.805,165.918 134.854 C 166.079 134.902,168.145 134.122,170.508 133.120 C 177.859 130.004,186.435 127.886,193.422 127.460 L 197.266 127.226 197.266 117.519 L 197.266 107.813 196.387 107.881 C 195.903 107.918,194.717 108.007,193.750 108.077 M202.734 117.496 L 202.734 127.226 206.348 127.464 C 260.326 131.024,293.288 194.867,264.605 240.303 C 264.087 241.125,263.744 241.797,263.844 241.797 C 263.943 241.797,263.592 242.264,263.063 242.835 C 262.534 243.405,262.189 243.959,262.295 244.066 C 262.401 244.172,262.183 244.509,261.810 244.815 C 261.438 245.120,261.370 245.248,261.660 245.099 C 262.084 244.881,262.101 244.988,261.746 245.652 C 261.503 246.106,261.178 246.458,261.023 246.434 C 260.268 246.320,260.105 246.538,260.547 247.070 C 261.024 247.645,260.949 247.718,259.766 247.832 C 259.443 247.863,259.230 248.118,259.291 248.399 C 259.352 248.680,259.199 249.156,258.950 249.455 C 258.702 249.755,258.638 250.000,258.809 250.000 C 258.981 250.000,258.708 250.439,258.205 250.975 C 257.243 251.999,257.377 252.801,258.372 251.975 C 259.018 251.439,259.919 251.780,259.528 252.413 C 259.370 252.668,259.566 252.726,260.056 252.571 C 260.898 252.304,262.436 254.049,261.738 254.480 C 261.539 254.603,261.203 254.394,260.991 254.015 C 260.779 253.637,260.461 253.472,260.284 253.648 C 259.670 254.263,261.332 255.083,262.152 254.570 C 262.702 254.227,263.070 254.221,263.592 254.547 C 264.172 254.909,264.304 254.856,264.350 254.242 C 264.381 253.833,264.277 253.578,264.120 253.675 C 263.963 253.773,263.808 253.501,263.775 253.073 C 263.696 252.015,264.572 252.366,264.840 253.499 C 265.021 254.266,265.123 254.316,265.527 253.829 C 265.908 253.370,265.849 253.094,265.227 252.426 C 264.231 251.357,264.242 251.031,265.256 251.574 C 266.276 252.120,266.812 253.506,266.346 254.395 C 266.123 254.820,266.130 255.078,266.364 255.078 C 266.571 255.078,266.829 255.386,266.938 255.762 C 267.102 256.326,267.133 256.309,267.117 255.664 C 267.081 254.230,267.185 253.774,267.480 254.069 C 267.762 254.351,267.813 254.521,267.920 255.547 C 267.958 255.911,268.073 255.911,268.437 255.547 C 268.695 255.289,269.003 255.078,269.121 255.078 C 269.552 255.078,269.256 258.751,268.814 258.898 C 268.564 258.981,268.359 259.231,268.359 259.452 C 268.359 259.674,268.793 259.572,269.322 259.225 C 270.546 258.423,270.556 258.424,270.902 259.473 L 271.193 260.352 271.366 259.473 C 271.544 258.565,272.051 258.322,272.443 258.955 C 272.714 259.394,271.881 261.328,271.422 261.328 C 271.241 261.328,271.094 261.631,271.094 262.001 C 271.094 262.566,271.187 262.541,271.677 261.841 C 272.035 261.331,272.535 261.081,272.974 261.196 C 273.379 261.302,273.929 261.076,274.246 260.672 C 274.767 260.009,274.752 259.999,274.023 260.526 C 273.594 260.836,273.884 260.477,274.668 259.727 C 276.570 257.910,281.932 249.659,284.537 244.545 C 305.854 202.679,292.409 150.788,253.376 124.281 C 238.827 114.401,225.002 109.696,205.566 108.011 L 202.734 107.765 202.734 117.496 M148.145 166.295 C 148.735 166.385,149.702 166.385,150.293 166.295 C 150.884 166.206,150.400 166.133,149.219 166.133 C 148.037 166.133,147.554 166.206,148.145 166.295 M190.508 166.262 C 190.358 166.413,190.274 172.440,190.323 179.655 L 190.412 192.773 190.625 181.055 C 190.742 174.609,190.878 170.435,190.927 171.777 C 190.976 173.120,190.972 174.280,190.918 174.354 C 190.864 174.428,191.071 174.791,191.377 175.160 C 191.875 175.760,191.969 175.766,192.275 175.220 C 192.463 174.884,192.784 174.609,192.988 174.609 C 193.715 174.609,193.342 175.570,192.285 176.421 C 191.422 177.115,191.307 177.383,191.699 177.783 C 192.094 178.185,192.188 178.151,192.188 177.605 C 192.188 177.233,192.495 176.821,192.871 176.689 C 193.247 176.557,193.850 176.082,194.212 175.633 C 194.575 175.181,195.011 174.969,195.188 175.157 C 195.364 175.344,195.288 175.576,195.020 175.672 C 194.751 175.768,194.531 176.101,194.531 176.412 C 194.531 176.723,194.281 177.074,193.976 177.191 C 193.670 177.308,193.311 177.688,193.177 178.036 C 192.963 178.594,193.019 178.591,193.666 178.005 C 194.068 177.642,194.595 177.344,194.836 177.344 C 195.077 177.344,195.453 177.036,195.672 176.660 C 195.891 176.284,196.075 176.118,196.082 176.290 C 196.088 176.463,195.659 177.244,195.128 178.026 C 193.824 179.945,194.215 180.132,195.867 178.380 C 197.147 177.023,197.996 176.478,197.447 177.366 C 196.257 179.291,198.386 180.189,200.093 178.482 C 201.673 176.903,201.950 177.395,202.063 181.980 C 202.145 185.336,202.734 186.731,202.734 183.571 C 202.734 181.487,203.504 181.599,203.562 183.691 C 203.587 184.604,203.579 185.573,203.544 185.843 C 203.509 186.113,203.657 186.640,203.874 187.015 C 204.179 187.541,204.259 187.296,204.226 185.938 C 204.142 182.520,204.302 180.859,204.714 180.859 C 204.953 180.859,205.025 181.192,204.883 181.641 C 204.707 182.195,204.813 182.422,205.247 182.422 C 205.584 182.422,205.859 182.246,205.859 182.031 C 205.859 181.816,206.043 181.641,206.267 181.641 C 206.491 181.641,206.639 181.860,206.596 182.129 C 206.490 182.786,207.036 183.984,207.441 183.984 C 207.621 183.984,207.708 183.677,207.636 183.301 C 207.448 182.326,234.728 182.439,237.380 183.424 C 244.465 186.054,245.411 196.543,238.925 200.552 C 237.109 201.675,236.841 201.721,230.342 202.027 C 226.652 202.200,222.458 202.421,221.022 202.518 C 219.586 202.615,217.833 202.529,217.127 202.326 C 216.138 202.043,215.709 202.092,215.260 202.542 C 214.742 203.059,214.752 203.125,215.346 203.125 C 215.714 203.125,216.016 203.375,216.016 203.680 C 216.016 204.192,216.530 204.391,219.112 204.880 C 219.633 204.979,220.195 205.279,220.360 205.546 C 220.525 205.813,220.778 205.914,220.922 205.770 C 221.066 205.627,220.680 205.060,220.065 204.510 C 219.212 203.750,219.131 203.573,219.727 203.770 C 220.980 204.183,221.417 204.664,221.697 205.938 C 221.892 206.827,222.050 206.996,222.308 206.595 C 222.579 206.174,222.709 206.249,222.897 206.934 C 223.131 207.785,224.219 208.198,224.219 207.434 C 224.219 207.226,224.487 207.159,224.815 207.284 C 225.279 207.463,225.310 207.634,224.954 208.063 C 224.703 208.365,224.611 208.726,224.749 208.864 C 224.887 209.002,225.000 208.930,225.000 208.704 C 225.000 208.479,225.439 208.210,225.977 208.108 C 226.514 208.005,226.953 208.091,226.953 208.299 C 226.953 208.507,227.200 208.583,227.501 208.467 C 228.375 208.132,228.575 208.662,227.868 209.443 C 227.055 210.341,227.401 210.753,228.482 210.174 C 229.144 209.820,229.297 209.851,229.297 210.338 C 229.297 210.668,229.121 210.938,228.906 210.938 C 228.691 210.938,228.516 211.201,228.516 211.523 C 228.516 212.299,228.891 212.264,229.565 211.426 C 230.058 210.813,230.090 210.874,229.870 212.012 C 229.614 213.340,229.956 213.618,230.829 212.793 C 231.256 212.390,231.265 212.461,230.882 213.206 C 230.626 213.701,230.166 214.203,229.860 214.321 C 229.553 214.439,229.399 214.692,229.517 214.885 C 229.636 215.077,229.568 215.234,229.365 215.234 C 229.163 215.234,228.901 215.603,228.783 216.054 C 228.612 216.709,228.715 216.836,229.298 216.683 C 229.699 216.578,230.112 216.714,230.216 216.984 C 230.462 217.625,232.352 217.983,232.540 217.424 C 232.645 217.111,232.944 217.114,233.627 217.436 C 234.146 217.680,235.186 217.900,235.938 217.926 C 236.689 217.952,237.788 218.074,238.379 218.197 C 239.057 218.339,239.453 218.256,239.453 217.973 C 239.453 217.718,239.759 217.622,240.163 217.751 C 240.553 217.875,241.876 217.631,243.102 217.209 C 267.488 208.819,265.929 174.277,240.838 167.044 C 238.022 166.232,191.265 165.506,190.508 166.262 M200.559 178.641 C 200.246 179.456,200.637 179.988,201.162 179.463 C 201.384 179.241,201.390 178.868,201.177 178.523 C 200.877 178.038,200.783 178.056,200.559 178.641 M195.952 179.492 C 195.816 179.849,195.952 180.078,196.301 180.078 C 196.617 180.078,196.875 179.814,196.875 179.492 C 196.875 179.170,196.718 178.906,196.526 178.906 C 196.334 178.906,196.076 179.170,195.952 179.492 M198.715 180.859 C 198.827 181.289,199.054 181.641,199.219 181.641 C 199.383 181.641,199.610 181.289,199.723 180.859 C 199.871 180.290,199.735 180.078,199.219 180.078 C 198.703 180.078,198.566 180.290,198.715 180.859 M206.801 185.254 C 206.492 186.215,206.483 189.816,206.789 190.122 C 207.388 190.722,207.813 189.464,207.813 187.086 C 207.813 184.401,207.347 183.557,206.801 185.254 M213.019 204.492 C 213.021 205.996,213.091 206.563,213.176 205.753 C 213.260 204.943,213.259 203.712,213.173 203.019 C 213.086 202.325,213.017 202.988,213.019 204.492 M222.927 205.274 C 222.415 205.830,222.154 205.726,222.035 204.919 C 221.987 204.586,222.222 204.461,222.676 204.579 C 223.241 204.727,223.295 204.875,222.927 205.274 M224.213 206.261 C 223.980 206.697,223.595 206.933,223.359 206.787 C 223.075 206.612,223.174 206.342,223.648 205.995 C 224.618 205.286,224.711 205.329,224.213 206.261 M231.272 215.012 C 231.049 215.281,230.991 215.627,231.144 215.779 C 231.297 215.932,231.084 215.927,230.672 215.769 C 230.234 215.601,230.117 215.417,230.391 215.325 C 230.649 215.240,230.859 214.910,230.859 214.593 C 230.859 214.276,231.044 214.130,231.269 214.270 C 231.553 214.445,231.554 214.673,231.272 215.012 M223.904 218.651 C 226.202 218.720,230.069 218.720,232.498 218.651 C 234.927 218.583,233.047 218.526,228.320 218.526 C 223.594 218.526,221.606 218.582,223.904 218.651 M268.073 256.729 C 267.854 257.003,267.800 257.572,267.954 257.994 C 268.201 258.673,268.264 258.635,268.510 257.655 C 268.829 256.386,268.650 256.007,268.073 256.729 M270.703 257.250 C 270.703 257.817,270.534 258.145,270.313 258.008 C 270.098 257.875,269.922 257.425,269.922 257.008 C 269.922 256.591,270.098 256.250,270.313 256.250 C 270.527 256.250,270.703 256.700,270.703 257.250 M266.982 268.457 L 264.258 271.289 267.090 268.565 C 269.720 266.035,270.100 265.625,269.814 265.625 C 269.754 265.625,268.480 266.899,266.982 268.457 " stroke="none" fill="#a22f9a" fill-rule="evenodd"></path><path id="path3" d="M202.514 117.578 C 202.514 123.057,202.568 125.298,202.636 122.559 C 202.703 119.819,202.703 115.337,202.636 112.598 C 202.568 109.858,202.514 112.100,202.514 117.578 M132.608 135.645 L 129.492 138.867 132.715 135.751 C 135.708 132.857,136.116 132.422,135.831 132.422 C 135.772 132.422,134.322 133.872,132.608 135.645 M252.734 149.023 C 253.463 149.775,254.147 150.391,254.255 150.391 C 254.362 150.391,253.854 149.775,253.125 149.023 C 252.396 148.271,251.712 147.656,251.605 147.656 C 251.497 147.656,252.006 148.271,252.734 149.023 M142.297 166.303 C 143.324 166.384,144.906 166.383,145.813 166.301 C 146.719 166.219,145.879 166.153,143.945 166.154 C 142.012 166.155,141.270 166.222,142.297 166.303 M152.832 166.303 C 153.853 166.383,155.522 166.383,156.543 166.303 C 157.563 166.222,156.729 166.156,154.688 166.156 C 152.646 166.156,151.812 166.222,152.832 166.303 M158.776 187.305 C 158.776 198.906,158.826 203.596,158.887 197.726 C 158.947 191.857,158.947 182.364,158.886 176.633 C 158.826 170.901,158.776 175.703,158.776 187.305 M124.755 202.148 C 124.756 204.512,124.821 205.428,124.898 204.185 C 124.976 202.942,124.976 201.008,124.897 199.888 C 124.818 198.768,124.755 199.785,124.755 202.148 M294.670 202.539 C 294.669 204.473,294.735 205.313,294.817 204.406 C 294.899 203.500,294.900 201.918,294.819 200.891 C 294.738 199.864,294.671 200.605,294.670 202.539 M162.109 216.528 C 162.109 216.596,162.681 217.167,163.379 217.798 L 164.648 218.945 163.501 217.676 C 162.432 216.492,162.109 216.227,162.109 216.528 M173.926 222.144 C 174.302 222.243,174.917 222.243,175.293 222.144 C 175.669 222.046,175.361 221.966,174.609 221.966 C 173.857 221.966,173.550 222.046,173.926 222.144 M150.000 229.883 C 150.729 230.635,151.413 231.250,151.520 231.250 C 151.628 231.250,151.119 230.635,150.391 229.883 C 149.662 229.131,148.978 228.516,148.870 228.516 C 148.763 228.516,149.271 229.131,150.000 229.883 M144.922 253.247 C 144.922 253.314,145.493 253.886,146.191 254.517 L 147.461 255.664 146.314 254.395 C 145.244 253.211,144.922 252.945,144.922 253.247 M131.836 267.969 C 133.112 269.258,134.243 270.313,134.351 270.313 C 134.458 270.313,133.502 269.258,132.227 267.969 C 130.951 266.680,129.819 265.625,129.712 265.625 C 129.605 265.625,130.560 266.680,131.836 267.969 M202.520 277.059 C 202.415 277.331,202.376 281.770,202.434 286.922 L 202.539 296.289 203.906 296.340 L 205.273 296.391 204.004 296.218 L 202.734 296.044 202.734 286.531 C 202.734 279.286,202.851 276.971,203.223 276.821 C 203.605 276.667,203.602 276.617,203.210 276.593 C 202.935 276.576,202.624 276.786,202.520 277.059 M195.410 296.363 C 195.786 296.461,196.401 296.461,196.777 296.363 C 197.153 296.265,196.846 296.184,196.094 296.184 C 195.342 296.184,195.034 296.265,195.410 296.363 " stroke="none" fill="#a9a0c7" fill-rule="evenodd"></path><path id="path4" d="M205.176 127.613 C 205.552 127.711,206.167 127.711,206.543 127.613 C 206.919 127.515,206.611 127.434,205.859 127.434 C 205.107 127.434,204.800 127.515,205.176 127.613 M266.992 135.547 C 268.485 137.051,269.794 138.281,269.901 138.281 C 270.008 138.281,268.875 137.051,267.383 135.547 C 265.890 134.043,264.581 132.813,264.474 132.813 C 264.367 132.813,265.500 134.043,266.992 135.547 M146.665 149.316 L 144.727 151.367 146.777 149.429 C 147.905 148.363,148.828 147.440,148.828 147.378 C 148.828 147.086,148.466 147.411,146.665 149.316 M208.376 193.945 C 208.376 200.176,208.430 202.670,208.495 199.488 C 208.561 196.306,208.561 191.208,208.495 188.160 C 208.429 185.111,208.375 187.715,208.376 193.945 M260.675 192.773 C 260.677 194.277,260.747 194.845,260.832 194.034 C 260.917 193.224,260.915 191.993,260.829 191.300 C 260.743 190.606,260.673 191.270,260.675 192.773 M294.638 197.656 C 294.638 198.623,294.714 199.019,294.807 198.535 C 294.900 198.052,294.900 197.261,294.807 196.777 C 294.714 196.294,294.638 196.689,294.638 197.656 M225.488 201.853 C 227.368 201.925,230.444 201.925,232.324 201.853 C 234.204 201.782,232.666 201.723,228.906 201.723 C 225.146 201.723,223.608 201.782,225.488 201.853 M294.630 207.227 C 294.634 208.086,294.714 208.392,294.808 207.906 C 294.901 207.420,294.897 206.717,294.800 206.343 C 294.702 205.970,294.625 206.367,294.630 207.227 M252.911 211.426 L 251.367 213.086 253.027 211.542 C 254.571 210.106,254.867 209.766,254.571 209.766 C 254.508 209.766,253.761 210.513,252.911 211.426 M198.026 229.980 L 196.680 231.445 198.145 230.099 C 199.508 228.846,199.789 228.516,199.491 228.516 C 199.425 228.516,198.766 229.175,198.026 229.980 M202.052 234.180 C 202.056 235.039,202.136 235.345,202.229 234.859 C 202.323 234.373,202.319 233.670,202.222 233.296 C 202.124 232.923,202.047 233.320,202.052 234.180 M202.053 238.281 C 202.189 238.780,203.546 238.869,211.165 238.879 L 220.117 238.890 211.346 238.774 C 204.963 238.688,202.483 238.526,202.235 238.176 C 201.987 237.827,201.937 237.855,202.053 238.281 M253.502 254.199 L 251.367 256.445 253.613 254.310 C 255.700 252.327,256.038 251.953,255.748 251.953 C 255.687 251.953,254.677 252.964,253.502 254.199 M267.364 268.457 L 265.820 270.117 267.480 268.573 C 268.394 267.724,269.141 266.977,269.141 266.913 C 269.141 266.617,268.800 266.913,267.364 268.457 " stroke="none" fill="#d0a8d2" fill-rule="evenodd"></path></g></svg>